<svg xmlns="http://www.w3.org/2000/svg" width="1.25em" height="1.25em" viewBox="0 0 24 24" aria-hidden="true" fill="white">
  <path d="M12 .297c-6.63 0-12 5.373-12 12 0 5.303 3.438 9.8 8.205 11.387.6.113.82-.258.82-.577v-2.234c-3.338.726-4.033-1.416-4.033-1.416-.546-1.387-1.333-1.757-1.333-1.757-1.089-.745.084-.729.084-.729 1.205.085 1.84 1.237 1.84 1.237 1.07 1.834 2.809 1.304 3.495.997.108-.775.418-1.305.762-1.605-2.665-.304-5.466-1.334-5.466-5.93 0-1.31.468-2.381 1.235-3.221-.123-.303-.535-1.523.117-3.176 0 0 1.008-.322 3.301 1.23.957-.266 1.984-.399 3.003-.404 1.02.005 2.047.138 3.006.404 2.291-1.552 3.297-1.23 3.297-1.23.653 1.653.241 2.873.118 3.176.77.84 1.233 1.911 1.233 3.221 0 4.609-2.807 5.625-5.479 5.921.43.372.823 1.102.823 2.222v3.293c0 .319.218.694.825.576C20.565 22.092 24 17.592 24 12.297 24 5.67 18.627.297 12 .297z"/>
</svg>